<?xml version="1.0" encoding="utf-8"?>
<!-- Generator: Adobe Illustrator 16.0.0, SVG Export Plug-In . SVG Version: 6.00 Build 0)  -->
<!DOCTYPE svg PUBLIC "-//W3C//DTD SVG 1.1//EN" "http://www.w3.org/Graphics/SVG/1.1/DTD/svg11.dtd">
<svg version="1.1" id="elements" xmlns="http://www.w3.org/2000/svg" xmlns:xlink="http://www.w3.org/1999/xlink" x="0px" y="0px"
	 width="937.501px" height="938.492px" viewBox="0 0 937.501 938.492" enable-background="new 0 0 937.501 938.492"
	 xml:space="preserve">
<g>
	<path fill-rule="evenodd" clip-rule="evenodd" fill="none" stroke="#FFFFFF" stroke-miterlimit="10" d="M822.077,262.406v22.318
		h-11.724c-0.296,3.266-0.787,6.471-1.334,9.663l11.377,3.054l-5.773,21.552l-11.375-3.042c-1.133,3.063-2.366,6.071-3.729,9.012
		l10.201,5.886l-11.16,19.331l-10.188-5.884c-1.872,2.67-3.802,5.296-5.894,7.791l8.271,8.269l-15.782,15.78l-8.27-8.272
		c-2.495,2.094-5.122,4.023-7.79,5.896l5.884,10.188l-19.329,11.158l-5.887-10.198c-2.942,1.361-5.95,2.593-9.012,3.727
		l3.042,11.373l-21.557,5.778l-3.046-11.376c-3.196,0.544-6.396,1.034-9.669,1.328v11.724h-22.314v-11.724
		c-3.272-0.294-6.485-0.784-9.667-1.328l-3.049,11.376l-21.565-5.778l3.052-11.373c-3.062-1.134-6.069-2.366-9.012-3.727
		l-5.884,10.198l-19.332-11.158l5.884-10.188c-2.668-1.874-5.296-3.802-7.791-5.896l-8.269,8.272l-15.783-15.78l8.275-8.269
		c-2.093-2.495-4.024-5.121-5.906-7.791l-10.179,5.884l-11.157-19.331l10.188-5.886c-1.362-2.94-2.584-5.948-3.713-9.012
		l-11.378,3.042l-5.777-21.552l11.378-3.054c-0.547-3.192-1.038-6.397-1.334-9.663h-11.724v-22.318h11.724
		c0.296-3.269,0.787-6.483,1.334-9.665l-11.378-3.05l5.777-21.565l11.378,3.051c1.129-3.063,2.351-6.07,3.713-9.012l-10.188-5.886
		l11.157-19.329l10.179,5.873c1.882-2.659,3.813-5.285,5.906-7.78l-8.275-8.271l15.783-15.779l8.269,8.272
		c2.495-2.092,5.123-4.021,7.791-5.908l-5.884-10.176l19.332-11.159l5.884,10.19c2.942-1.362,5.95-2.583,9.012-3.717l-3.052-11.376
		l21.565-5.773l3.049,11.376c3.182-0.544,6.395-1.035,9.667-1.331v-11.724h22.314v11.724c3.272,0.296,6.473,0.787,9.669,1.331
		l3.046-11.376l21.557,5.773l-3.042,11.376c3.062,1.134,6.069,2.355,9.012,3.717l5.887-10.19l19.329,11.159l-5.884,10.176
		c2.668,1.886,5.295,3.815,7.79,5.908l8.27-8.272l15.782,15.779l-8.271,8.271c2.092,2.495,4.021,5.121,5.894,7.78l10.188-5.873
		l11.16,19.329l-10.201,5.886c1.362,2.942,2.596,5.948,3.729,9.012l11.375-3.051l5.773,21.565l-11.377,3.05
		c0.547,3.181,1.038,6.396,1.334,9.665H822.077z M688.178,184.298c-49.293,0-89.264,39.97-89.264,89.265
		c0,49.296,39.971,89.265,89.264,89.265s89.267-39.969,89.267-89.265C777.444,224.269,737.471,184.298,688.178,184.298z
		 M688.178,351.67c-43.142,0-78.105-34.965-78.105-78.107c0-43.137,34.964-78.106,78.105-78.106s78.105,34.969,78.105,78.106
		C766.283,316.705,731.319,351.67,688.178,351.67z M688.178,206.617c-36.972,0-66.948,29.975-66.948,66.947
		c0,36.973,29.977,66.95,66.948,66.95s66.948-29.977,66.948-66.95C755.126,236.592,725.149,206.617,688.178,206.617z"/>
	<path fill-rule="evenodd" clip-rule="evenodd" fill="none" stroke="#FFFFFF" stroke-miterlimit="10" d="M887.713,118.005v8.582
		h-4.509c-0.113,1.257-0.302,2.49-0.513,3.717l4.374,1.174l-2.219,8.29l-4.377-1.17c-0.438,1.178-0.912,2.334-1.432,3.466
		l3.921,2.264l-4.289,7.434l-3.917-2.262c-0.724,1.026-1.463,2.038-2.269,2.997l3.178,3.178l-6.066,6.069l-3.182-3.181
		c-0.959,0.806-1.969,1.546-2.998,2.271l2.266,3.916l-7.436,4.292l-2.262-3.922c-1.13,0.522-2.291,0.998-3.468,1.434l1.174,4.374
		l-8.291,2.221l-1.177-4.375c-1.228,0.211-2.458,0.399-3.717,0.511v4.509h-8.58v-4.509c-1.259-0.112-2.495-0.3-3.716-0.511
		l-1.177,4.375l-8.295-2.221l1.177-4.374c-1.18-0.436-2.337-0.911-3.467-1.434l-2.263,3.922l-7.436-4.292l2.266-3.916
		c-1.028-0.724-2.035-1.465-2.998-2.271l-3.178,3.181l-6.07-6.069l3.182-3.178c-0.809-0.959-1.549-1.971-2.272-2.997l-3.917,2.262
		l-4.289-7.434l3.918-2.264c-0.525-1.131-0.991-2.288-1.429-3.466l-4.377,1.17l-2.218-8.29l4.37-1.174
		c-0.208-1.227-0.396-2.46-0.51-3.717h-4.506v-8.582h4.506c0.113-1.257,0.302-2.494,0.51-3.718l-4.37-1.172l2.218-8.294l4.377,1.174
		c0.438-1.179,0.903-2.333,1.429-3.468l-3.918-2.262l4.289-7.434l3.917,2.259c0.724-1.022,1.464-2.033,2.272-2.991l-3.182-3.183
		l6.07-6.068l3.178,3.181c0.963-0.804,1.97-1.545,2.998-2.271l-2.266-3.915l7.436-4.292l2.263,3.92
		c1.13-0.524,2.287-0.996,3.467-1.43l-1.177-4.375l8.295-2.22l1.177,4.375c1.221-0.211,2.457-0.4,3.716-0.513v-4.509h8.58v4.509
		c1.259,0.113,2.489,0.302,3.717,0.513l1.177-4.375l8.291,2.22l-1.174,4.375c1.177,0.434,2.338,0.906,3.468,1.43l2.262-3.92
		l7.436,4.292l-2.266,3.915c1.029,0.727,2.039,1.468,2.998,2.271l3.182-3.181l6.066,6.068l-3.178,3.183
		c0.806,0.958,1.545,1.968,2.269,2.991l3.917-2.259l4.289,7.434l-3.921,2.262c0.52,1.135,0.994,2.289,1.432,3.468l4.377-1.174
		l2.219,8.294l-4.374,1.172c0.211,1.224,0.399,2.46,0.513,3.718H887.713z M836.215,87.968c-18.958,0-34.329,15.369-34.329,34.327
		c0,18.959,15.371,34.332,34.329,34.332c18.96,0,34.331-15.372,34.331-34.332C870.546,103.337,855.175,87.968,836.215,87.968z
		 M836.215,152.336c-16.592,0-30.037-13.45-30.037-30.042c0-16.59,13.445-30.038,30.037-30.038
		c16.594,0,30.039,13.448,30.039,30.038C866.254,138.887,852.809,152.336,836.215,152.336z M836.215,96.547
		c-14.217,0-25.748,11.529-25.748,25.748c0,14.221,11.531,25.75,25.748,25.75c14.219,0,25.751-11.529,25.751-25.75
		C861.966,108.076,850.434,96.547,836.215,96.547z"/>
	<path fill-rule="evenodd" clip-rule="evenodd" fill="none" stroke="#FFFFFF" stroke-miterlimit="10" d="M776.17,85.429v5.275h-2.77
		c-0.069,0.772-0.186,1.531-0.317,2.284l2.69,0.722l-1.362,5.094l-2.69-0.719c-0.271,0.724-0.563,1.435-0.881,2.13l2.41,1.391
		l-2.637,4.568l-2.407-1.389c-0.447,0.629-0.9,1.251-1.395,1.841l1.951,1.954l-3.729,3.73l-1.954-1.956
		c-0.588,0.496-1.211,0.952-1.844,1.396l1.394,2.407l-4.568,2.638l-1.391-2.41c-0.695,0.321-1.41,0.612-2.134,0.881l0.724,2.688
		l-5.097,1.365l-0.724-2.688c-0.756,0.129-1.511,0.246-2.285,0.313v2.772h-5.273v-2.772c-0.773-0.067-1.532-0.184-2.284-0.313
		l-0.724,2.688l-5.098-1.365l0.724-2.688c-0.724-0.269-1.438-0.56-2.13-0.881l-1.391,2.41l-4.572-2.638l1.395-2.407
		c-0.633-0.443-1.253-0.9-1.844-1.396l-1.954,1.956l-3.729-3.73l1.954-1.954c-0.497-0.59-0.95-1.211-1.397-1.841l-2.407,1.389
		l-2.634-4.568l2.407-1.391c-0.324-0.695-0.61-1.406-0.878-2.13l-2.69,0.719l-1.365-5.094l2.688-0.722
		c-0.126-0.753-0.242-1.512-0.312-2.284h-2.772v-5.275h2.772c0.069-0.773,0.186-1.533,0.312-2.285l-2.688-0.721l1.365-5.099
		l2.69,0.722c0.268-0.726,0.554-1.435,0.878-2.132l-2.407-1.391l2.634-4.569l2.407,1.389c0.447-0.629,0.9-1.249,1.397-1.839
		l-1.954-1.956l3.729-3.73l1.954,1.956c0.591-0.494,1.211-0.949,1.844-1.396l-1.395-2.405l4.572-2.639l1.391,2.409
		c0.692-0.321,1.406-0.612,2.13-0.878l-0.724-2.69l5.098-1.364l0.724,2.689c0.752-0.129,1.511-0.246,2.284-0.315v-2.771h5.273v2.771
		c0.774,0.069,1.529,0.186,2.285,0.315l0.724-2.689l5.097,1.364l-0.724,2.69c0.724,0.266,1.438,0.557,2.134,0.878l1.391-2.409
		l4.568,2.639l-1.394,2.405c0.633,0.447,1.256,0.901,1.844,1.396l1.954-1.956l3.729,3.73l-1.951,1.956
		c0.494,0.59,0.947,1.21,1.395,1.839l2.407-1.389l2.637,4.569l-2.41,1.391c0.317,0.697,0.61,1.406,0.881,2.132l2.69-0.722
		l1.362,5.099l-2.69,0.721c0.132,0.752,0.248,1.512,0.317,2.285H776.17z M744.519,66.967c-11.651,0-21.101,9.447-21.101,21.099
		c0,11.653,9.449,21.1,21.101,21.1c11.655,0,21.101-9.447,21.101-21.1C765.619,76.414,756.174,66.967,744.519,66.967z
		 M744.519,106.529c-10.197,0-18.46-8.266-18.46-18.463c0-10.196,8.263-18.462,18.46-18.462c10.198,0,18.464,8.266,18.464,18.462
		C762.982,98.264,754.717,106.529,744.519,106.529z M744.519,72.24c-8.737,0-15.826,7.086-15.826,15.826
		c0,8.741,7.089,15.827,15.826,15.827c8.738,0,15.827-7.086,15.827-15.827C760.346,79.326,753.257,72.24,744.519,72.24z"/>
	<g>
		<g>
			<path fill="#F0F0F0" d="M68.977,636.706v61.753c0,4.428,5.084,8.053,11.296,8.053h647.55c6.215,0,11.296-3.625,11.296-8.053
				v-61.753H68.977z"/>
			<path fill="#184F78" d="M739.119,230.872c0-7.02-5.081-12.766-11.296-12.766H80.273c-6.211,0-11.296,5.746-11.296,12.766v405.834
				h670.142V230.872z"/>
		</g>
		<rect x="328.538" y="706.512" fill="#D6D6D6" width="150.646" height="46.253"/>
		<rect x="292.332" y="752.765" fill="#F0F0F0" width="220.989" height="21.641"/>
		<rect x="328.538" y="706.512" fill="#A8B6BD" width="150.646" height="16.703"/>
		<rect x="97.145" y="243.733" fill="#FFFFFF" width="612.656" height="367.93"/>
		<rect x="136.813" y="283.931" fill="#DF3F19" width="116.956" height="13.409"/>
		<rect x="136.813" y="401.259" fill="#DF3F19" width="68.534" height="18.251"/>
		<rect x="136.813" y="312.611" fill="#99D5DF" width="208.582" height="6.333"/>
		<rect x="136.813" y="333.097" fill="#99D5DF" width="177.296" height="7.449"/>
		<rect x="136.813" y="353.211" fill="#99D5DF" width="197.78" height="7.82"/>
		<rect x="136.813" y="374.069" fill="#99D5DF" width="152.712" height="7.077"/>
		<g>
			<rect x="277.873" y="489.649" fill="#F4901E" width="28.199" height="96.351"/>
			<rect x="333.491" y="512.365" fill="#F4901E" width="28.199" height="73.635"/>
			<rect x="389.949" y="427.698" fill="#F4901E" width="28.199" height="158.302"/>
			<rect x="446.296" y="457.138" fill="#F4901E" width="28.199" height="128.862"/>
			<rect x="502.439" y="399.955" fill="#F4901E" width="28.199" height="186.045"/>
			<rect x="558.312" y="346.293" fill="#F4901E" width="28.199" height="239.707"/>
			<rect x="613.146" y="291.848" fill="#F4901E" width="28.198" height="294.152"/>
		</g>
		<g>
			<polyline fill="none" stroke="#99D5DF" stroke-width="2" stroke-miterlimit="10" points="627.245,268.304 460.396,410.384 
				408.047,374.069 347.905,465.922 296.353,438.923 123.437,551.842 			"/>
			<circle fill="#D83E1C" cx="626.361" cy="268.467" r="12.419"/>
			<circle fill="#D83E1C" cx="406.373" cy="373.451" r="12.419"/>
			<circle fill="#D83E1C" cx="345.394" cy="466.46" r="12.419"/>
			<circle fill="#D83E1C" cx="293.653" cy="439.825" r="12.419"/>
		</g>
		<g opacity="0.3">
			<path fill="#FFFFFF" d="M80.273,218.106c-6.211,0-11.296,5.746-11.296,12.767v405.833h205.504l100.219-418.6H80.273z"/>
		</g>
	</g>
	<g>
		<path fill="#184F78" d="M249.567,808.93c0,10.379-8.493,18.871-18.863,18.871H27.543c-10.377,0-18.873-8.492-18.873-18.871
			V522.682c0-10.371,8.496-18.866,18.873-18.866h203.161c10.371,0,18.863,8.495,18.863,18.866V808.93z"/>
		<rect x="30.064" y="526.788" fill="#FFFFFF" width="196.339" height="260.353"/>
		<path fill="#E7E7E7" d="M146.151,809.598c0,7.506-6.079,13.583-13.583,13.583c-7.499,0-13.581-6.077-13.581-13.583
			c0-7.502,6.082-13.584,13.581-13.584C140.072,796.014,146.151,802.096,146.151,809.598z"/>
		<g>
			<path fill="#F2A246" d="M188.179,661.947l-19.622,2.582c0.006,0.284,0.044,0.56,0.044,0.846
				c0,21.093-17.095,38.192-38.189,38.192c-0.277,0-0.547-0.036-0.824-0.04l-2.58,19.61c3.606,0.214,7.275,0.129,10.991-0.358
				C168.315,718.787,189.988,692.003,188.179,661.947z"/>
			<path fill="#A1B402" d="M167.478,656.328l19.631-2.584c-5.761-28.153-31.412-47.834-60.099-46.105l2.577,19.587
				c0.277-0.005,0.547-0.041,0.824-0.041C148.382,627.185,163.41,639.612,167.478,656.328z"/>
			<path fill="#30ACB8" d="M118.808,608.721c-7.397,1.511-14.216,4.397-20.216,8.355l12.035,15.681
				c3.294-2.004,6.91-3.521,10.761-4.455L118.808,608.721z"/>
			<path fill="#FE6121" d="M104.054,637.784l-11.988-15.631c-13.873,12.311-21.632,31.001-19.027,50.778
				c0.488,3.716,1.35,7.286,2.482,10.716l18.253-7.558c-0.994-3.403-1.551-6.99-1.551-10.715
				C92.223,654.516,96.779,644.737,104.054,637.784z"/>
			<path fill="#FE6121" d="M96.927,683.735l-18.218,7.545c7.929,15.827,22.771,27.226,40.096,30.795l2.583-19.624
				C110.854,699.893,102.018,693.004,96.927,683.735z"/>
		</g>
		<polyline fill="none" stroke="#B3B3B3" stroke-width="0.5" stroke-miterlimit="10" points="48.267,599.196 104.054,599.196 
			109.992,608.721 		"/>
		<polyline fill="none" stroke="#B3B3B3" stroke-width="0.5" stroke-miterlimit="10" points="151.601,607.533 159.75,595.611 
			213.861,595.611 		"/>
		<polyline fill="none" stroke="#B3B3B3" stroke-width="0.5" stroke-miterlimit="10" points="175.074,708.724 187.109,759.575 
			132.571,759.575 		"/>
		<polyline fill="none" stroke="#B3B3B3" stroke-width="0.5" stroke-miterlimit="10" points="118.987,726.652 113.462,745.56 
			59.676,745.56 		"/>
		<path opacity="0.3" fill="#FFFFFF" d="M27.543,503.815c-10.377,0-18.873,8.495-18.873,18.866v259.817l197.053-278.684H27.543z"/>
	</g>
	<g>
		<path fill="#103754" d="M750.859,508.747c15.751-20.912,24.36-47.349,22.221-75.532c-4.686-61.316-58.201-107.233-119.546-102.568
			c-61.344,4.696-107.251,58.21-102.588,119.555c4.694,61.355,58.191,107.264,119.558,102.568
			c22.45-1.703,42.795-9.998,59.374-22.806l27.076,22.828l18.57-22.211L750.859,508.747z M668.191,522.702
			c-44.655,3.407-83.779-30.151-87.178-74.812c-3.423-44.643,30.163-83.748,74.818-87.174c44.648-3.398,83.75,30.161,87.18,74.8
			C746.42,480.169,712.853,519.314,668.191,522.702z"/>
		<path fill="#DD431C" d="M917.026,644.688c16.894,15.933,20.817,39.421,8.75,52.24c-12.099,12.807-35.798,10.23-52.682-5.688
			L763.143,587.432c-16.884-15.951-20.823-39.449-8.744-52.267c12.077-12.769,35.77-10.223,52.673,5.729L917.026,644.688z"/>
	</g>
	<path fill-rule="evenodd" clip-rule="evenodd" fill="#FFFFFF" d="M516.249,123.67c0,27.683-22.438,50.121-50.12,50.121H337.248
		c-27.683,0-50.121-22.438-50.121-50.121c0-2.58,0.258-5.097,0.629-7.572c0.069-0.461,0.132-0.924,0.211-1.378
		c0.434-2.377,1.02-4.691,1.775-6.935c0.125-0.385,0.273-0.755,0.412-1.141c1.699-4.674,4.056-9.03,6.985-12.943
		c0.183-0.244,0.365-0.493,0.554-0.733c1.517-1.947,3.159-3.787,4.937-5.489c0.11-0.105,0.23-0.203,0.343-0.309
		c3.741-3.51,8.026-6.453,12.712-8.69c0.12-0.06,0.229-0.115,0.349-0.171c2.385-1.112,4.852-2.057,7.419-2.79
		c2.397-0.686,4.874-1.167,7.404-1.504c-0.447-2.483-0.768-5.013-0.768-7.624c0-23.729,19.235-42.961,42.959-42.961
		c13.061,0,24.612,5.936,32.45,15.163c7.02-4.997,15.557-8.003,24.829-8.003c23.725,0,42.959,19.233,42.959,42.96
		c0,0.192-0.054,0.367-0.054,0.559C497.537,77.567,516.249,98.408,516.249,123.67z"/>
	<path fill-rule="evenodd" clip-rule="evenodd" fill="#99D5DD" d="M595.381,95.894c0,22.927-18.583,41.509-41.509,41.509H447.136
		c-22.925,0-41.508-18.582-41.508-41.509c0-2.136,0.214-4.221,0.522-6.271c0.057-0.38,0.107-0.764,0.173-1.141
		c0.358-1.97,0.843-3.886,1.469-5.744c0.104-0.319,0.227-0.625,0.343-0.944c1.406-3.872,3.357-7.479,5.783-10.72
		c0.151-0.202,0.302-0.408,0.459-0.607c1.256-1.612,2.615-3.135,4.087-4.545c0.091-0.088,0.192-0.168,0.287-0.255
		c3.096-2.908,6.646-5.346,10.525-7.198c0.101-0.05,0.192-0.096,0.29-0.143c1.976-0.92,4.018-1.702,6.145-2.31
		c1.985-0.568,4.037-0.966,6.132-1.246c-0.371-2.055-0.635-4.15-0.635-6.313c0-19.651,15.931-35.579,35.578-35.579
		c10.817,0,20.383,4.917,26.874,12.558c5.814-4.138,12.882-6.628,20.563-6.628c19.65,0,35.577,15.928,35.577,35.579
		c0,0.159-0.044,0.304-0.044,0.462C579.885,57.713,595.381,74.973,595.381,95.894z"/>
</g>
<text transform="matrix(1 0 0 1 620.6514 861.6816)" fill="#FFFFFF" font-family="'MyriadPro-Regular'" font-size="20.6354">PAY PER CLICK</text>
<text transform="matrix(1 0 0 1 161.9365 861.3047)" fill="#FFFFFF" font-family="'MyriadPro-Regular'" font-size="20.2092">SOCIACMEDIA</text>
</svg>
